<svg width="390" height="843" viewBox="0 0 390 843" fill="none" xmlns="http://www.w3.org/2000/svg">
<g clip-path="url(#clip0_3_534)">
<rect width="390" height="843" fill="#0D1519"/>
<path d="M55.5 146.4C56.8807 146.4 58 145.281 58 143.9C58 142.519 56.8807 141.4 55.5 141.4C54.1193 141.4 53 142.519 53 143.9C53 145.281 54.1193 146.4 55.5 146.4Z" fill="#26FE7E"/>
<path d="M350.2 504C351.581 504 352.7 502.881 352.7 501.5C352.7 500.119 351.581 499 350.2 499C348.819 499 347.7 500.119 347.7 501.5C347.7 502.881 348.819 504 350.2 504Z" fill="#26FE7E"/>
<path d="M57.8999 569.8C58.7836 569.8 59.4999 569.084 59.4999 568.2C59.4999 567.316 58.7836 566.6 57.8999 566.6C57.0163 566.6 56.2999 567.316 56.2999 568.2C56.2999 569.084 57.0163 569.8 57.8999 569.8Z" fill="#26FE7E"/>
<path d="M128.5 81.4C129.218 81.4 129.8 80.818 129.8 80.1001C129.8 79.3821 129.218 78.8 128.5 78.8C127.782 78.8 127.2 79.3821 127.2 80.1001C127.2 80.818 127.782 81.4 128.5 81.4Z" fill="#26FE7E"/>
<path d="M341.4 84C342.118 84 342.7 83.418 342.7 82.7C342.7 81.982 342.118 81.4 341.4 81.4C340.682 81.4 340.1 81.982 340.1 82.7C340.1 83.418 340.682 84 341.4 84Z" fill="#26FE7E"/>
<path d="M366.2 237.2C366.918 237.2 367.5 236.618 367.5 235.9C367.5 235.182 366.918 234.6 366.2 234.6C365.482 234.6 364.9 235.182 364.9 235.9C364.9 236.618 365.482 237.2 366.2 237.2Z" fill="#26FE7E"/>
<path d="M263.4 142.3C263.897 142.3 264.3 141.897 264.3 141.4C264.3 140.903 263.897 140.5 263.4 140.5C262.903 140.5 262.5 140.903 262.5 141.4C262.5 141.897 262.903 142.3 263.4 142.3Z" fill="#26FE7E"/>
<path d="M205.2 592.5C205.697 592.5 206.1 592.097 206.1 591.6C206.1 591.103 205.697 590.7 205.2 590.7C204.703 590.7 204.3 591.103 204.3 591.6C204.3 592.097 204.703 592.5 205.2 592.5Z" fill="#26FE7E"/>
<path d="M322.2 758.8C322.697 758.8 323.1 758.397 323.1 757.9C323.1 757.403 322.697 757 322.2 757C321.703 757 321.3 757.403 321.3 757.9C321.3 758.397 321.703 758.8 322.2 758.8Z" fill="#26FE7E"/>
<path d="M77.7999 767.3C78.297 767.3 78.6999 766.897 78.6999 766.4C78.6999 765.903 78.297 765.5 77.7999 765.5C77.3028 765.5 76.8999 765.903 76.8999 766.4C76.8999 766.897 77.3028 767.3 77.7999 767.3Z" fill="#26FE7E"/>
<path d="M218.2 457.6C218.476 457.6 218.7 457.376 218.7 457.1C218.7 456.824 218.476 456.6 218.2 456.6C217.924 456.6 217.7 456.824 217.7 457.1C217.7 457.376 217.924 457.6 218.2 457.6Z" fill="#26FE7E"/>
<path d="M281.1 269.3C281.376 269.3 281.6 269.076 281.6 268.8C281.6 268.524 281.376 268.3 281.1 268.3C280.824 268.3 280.6 268.524 280.6 268.8C280.6 269.076 280.824 269.3 281.1 269.3Z" fill="#26FE7E"/>
<path d="M205.7 336.4C205.976 336.4 206.2 336.176 206.2 335.9C206.2 335.624 205.976 335.4 205.7 335.4C205.424 335.4 205.2 335.624 205.2 335.9C205.2 336.176 205.424 336.4 205.7 336.4Z" fill="#26FE7E"/>
<path d="M147.4 687.1C147.676 687.1 147.9 686.876 147.9 686.6C147.9 686.324 147.676 686.1 147.4 686.1C147.124 686.1 146.9 686.324 146.9 686.6C146.9 686.876 147.124 687.1 147.4 687.1Z" fill="#26FE7E"/>
<path d="M249.7 825.5C249.976 825.5 250.2 825.276 250.2 825C250.2 824.724 249.976 824.5 249.7 824.5C249.424 824.5 249.2 824.724 249.2 825C249.2 825.276 249.424 825.5 249.7 825.5Z" fill="#26FE7E"/>
<path d="M303.9 632.3C304.176 632.3 304.4 632.076 304.4 631.8C304.4 631.524 304.176 631.3 303.9 631.3C303.624 631.3 303.4 631.524 303.4 631.8C303.4 632.076 303.624 632.3 303.9 632.3Z" fill="#26FE7E"/>
<path d="M163.5 155.6C163.776 155.6 164 155.376 164 155.1C164 154.824 163.776 154.6 163.5 154.6C163.224 154.6 163 154.824 163 155.1C163 155.376 163.224 155.6 163.5 155.6Z" fill="#26FE7E"/>
<path d="M96.2999 286.4C96.797 286.4 97.1999 285.997 97.1999 285.5C97.1999 285.003 96.797 284.6 96.2999 284.6C95.8028 284.6 95.3999 285.003 95.3999 285.5C95.3999 285.997 95.8028 286.4 96.2999 286.4Z" fill="#26FE7E"/>
<path d="M53.9 410.3C54.3971 410.3 54.8 409.897 54.8 409.4C54.8 408.903 54.3971 408.5 53.9 408.5C53.4029 408.5 53 408.903 53 409.4C53 409.897 53.4029 410.3 53.9 410.3Z" fill="#26FE7E"/>
<path d="M303.9 343.8C304.618 343.8 305.2 343.218 305.2 342.5C305.2 341.782 304.618 341.2 303.9 341.2C303.182 341.2 302.6 341.782 302.6 342.5C302.6 343.218 303.182 343.8 303.9 343.8Z" fill="#26FE7E"/>
<path d="M57.9 26.8C58.3971 26.8 58.8 26.3971 58.8 25.9C58.8 25.4029 58.3971 25 57.9 25C57.4029 25 57 25.4029 57 25.9C57 26.3971 57.4029 26.8 57.9 26.8Z" fill="#26FE7E"/>
<path d="M28.1246 12.6675C25.8322 12.6675 24.1989 14.2349 24.1989 16.3809V16.3955C24.1989 18.4023 25.6198 19.8818 27.6486 19.8818C29.0988 19.8818 30.0216 19.1421 30.4098 18.3071H30.5563C30.5563 18.3877 30.549 18.4683 30.549 18.5488C30.4684 20.5703 29.7579 22.2109 28.0807 22.2109C27.1505 22.2109 26.4987 21.7275 26.2204 20.9878L26.1984 20.9146H24.338L24.3527 20.9951C24.6896 22.6138 26.1398 23.7637 28.0807 23.7637C30.7394 23.7637 32.3434 21.6543 32.3434 18.0947V18.0801C32.3434 14.2715 30.3805 12.6675 28.1246 12.6675ZM28.1173 18.4316C26.9162 18.4316 26.0446 17.5527 26.0446 16.3296V16.3149C26.0446 15.1357 26.9747 14.2056 28.1393 14.2056C29.3112 14.2056 30.2267 15.1504 30.2267 16.3589V16.3735C30.2267 17.5674 29.3112 18.4316 28.1173 18.4316ZM35.4286 16.6519C36.1024 16.6519 36.5931 16.1392 36.5931 15.4946C36.5931 14.8428 36.1024 14.3374 35.4286 14.3374C34.7621 14.3374 34.264 14.8428 34.264 15.4946C34.264 16.1392 34.7621 16.6519 35.4286 16.6519ZM35.4286 22.0864C36.1024 22.0864 36.5931 21.5811 36.5931 20.9292C36.5931 20.2773 36.1024 19.772 35.4286 19.772C34.7621 19.772 34.264 20.2773 34.264 20.9292C34.264 21.5811 34.7621 22.0864 35.4286 22.0864ZM43.6407 23.5H45.4498V21.4712H46.8707V19.9111H45.4498V12.9312H42.7765C41.3409 15.1138 39.8395 17.5454 38.4698 19.9258V21.4712H43.6407V23.5ZM40.2277 19.9551V19.8452C41.253 18.0508 42.4762 16.0952 43.5602 14.4399H43.67V19.9551H40.2277ZM51.0106 23.5H52.9003V12.9312H51.0179L48.2567 14.8721V16.6519L50.8861 14.7915H51.0106V23.5Z" fill="white"/>
<path fill-rule="evenodd" clip-rule="evenodd" d="M329.339 13.1667H328.339C327.786 13.1667 327.339 13.6144 327.339 14.1667V22.8334C327.339 23.3856 327.786 23.8334 328.339 23.8334H329.339C329.891 23.8334 330.339 23.3856 330.339 22.8334V14.1667C330.339 13.6144 329.891 13.1667 329.339 13.1667ZM323.671 15.5001H324.671C325.223 15.5001 325.671 15.9478 325.671 16.5001V22.8334C325.671 23.3857 325.223 23.8334 324.671 23.8334H323.671C323.118 23.8334 322.671 23.3857 322.671 22.8334V16.5001C322.671 15.9478 323.118 15.5001 323.671 15.5001ZM320.007 17.8333H319.007C318.454 17.8333 318.007 18.281 318.007 18.8333V22.8333C318.007 23.3856 318.454 23.8333 319.007 23.8333H320.007C320.559 23.8333 321.007 23.3856 321.007 22.8333V18.8333C321.007 18.281 320.559 17.8333 320.007 17.8333ZM315.339 19.8334H314.339C313.786 19.8334 313.339 20.2811 313.339 20.8334V22.8334C313.339 23.3856 313.786 23.8334 314.339 23.8334H315.339C315.891 23.8334 316.339 23.3856 316.339 22.8334V20.8334C316.339 20.2811 315.891 19.8334 315.339 19.8334Z" fill="white"/>
<path fill-rule="evenodd" clip-rule="evenodd" d="M342.006 15.2845C344.23 15.2846 346.37 16.1387 347.982 17.6703C348.104 17.7885 348.298 17.787 348.418 17.6669L349.578 16.4966C349.639 16.4357 349.672 16.3532 349.672 16.2673C349.671 16.1815 349.637 16.0994 349.575 16.0392C345.344 11.9869 338.667 11.9869 334.435 16.0392C334.374 16.0993 334.339 16.1814 334.339 16.2673C334.338 16.3531 334.372 16.4356 334.432 16.4966L335.593 17.6669C335.713 17.7872 335.907 17.7887 336.028 17.6703C337.641 16.1386 339.781 15.2845 342.006 15.2845ZM342.008 19.0918C343.23 19.0917 344.409 19.5457 345.315 20.3654C345.437 20.4818 345.63 20.4792 345.75 20.3597L346.909 19.1894C346.97 19.128 347.004 19.0447 347.003 18.9582C347.002 18.8717 346.967 18.7891 346.904 18.729C344.145 16.1646 339.872 16.1646 337.113 18.729C337.051 18.7891 337.015 18.8717 337.014 18.9583C337.014 19.0448 337.048 19.1281 337.109 19.1894L338.268 20.3597C338.387 20.4792 338.58 20.4818 338.703 20.3654C339.608 19.5462 340.786 19.0923 342.008 19.0918ZM344.327 21.6541C344.329 21.7409 344.295 21.8246 344.233 21.8854L342.227 23.9074C342.169 23.9668 342.088 24.0002 342.005 24.0002C341.921 24.0002 341.841 23.9668 341.782 23.9074L339.777 21.8854C339.715 21.8245 339.681 21.7408 339.682 21.6541C339.684 21.5673 339.722 21.4851 339.786 21.4269C341.067 20.3447 342.943 20.3447 344.223 21.4269C344.288 21.4852 344.325 21.5674 344.327 21.6541Z" fill="white"/>
<rect opacity="0.35" x="354.172" y="13.3333" width="21" height="10.3333" rx="2.16667" stroke="white"/>
<path opacity="0.4" d="M376.672 16.5V20.5C377.477 20.1612 378 19.3731 378 18.5C378 17.6269 377.477 16.8388 376.672 16.5" fill="white"/>
<rect x="355.672" y="14.8333" width="18" height="7.33333" rx="1.33333" fill="white"/>
<path d="M147.007 56.6067C147.007 54.7733 145.729 53.7222 142.918 53.7222H137.749L134 68.0078H138.999C143.401 68.0078 145.503 66.04 145.503 63.2633C145.503 61.9156 144.594 61.0267 142.18 60.9456L142.294 60.6222C145.276 60.46 147.009 58.7889 147.009 56.6056L147.007 56.6067ZM139.254 64.7467H139.027L139.794 61.9978H140.362C141.384 61.9978 141.754 62.3478 141.754 62.86C141.754 63.8578 140.675 64.7467 139.254 64.7467V64.7467ZM140.504 59.5989H140.39L141.1 57.0111H141.667C142.633 57.0111 142.946 57.3611 142.946 57.8467C142.946 58.8711 141.81 59.5989 140.504 59.5989V59.5989Z" fill="white"/>
<path d="M158.596 56.6879C158.596 55.0434 157.488 53.5067 154.79 53.5067C149.933 53.5067 146.269 58.7623 146.269 63.7223C146.269 66.4179 147.888 68.1967 150.557 68.1967C154.192 68.1967 156.209 65.9867 156.975 62.8867H152.772C152.517 63.9379 152.005 64.6123 151.324 64.6123C150.643 64.6123 150.415 64.1545 150.415 63.1301C150.415 62.8334 150.444 62.5367 150.473 62.2134C155.614 62.0512 158.596 59.8956 158.596 56.6879V56.6879ZM153.995 56.8767C154.421 56.8767 154.733 57.1467 154.733 57.5779C154.733 58.3601 153.598 59.3034 151.297 59.4112C151.95 57.9823 152.916 56.8779 153.996 56.8779L153.995 56.8767Z" fill="white"/>
<path d="M167.94 53.7222H160.158L159.221 57.4156H161.323L158.51 68.0078H162.856L165.669 57.4156H167.003L167.94 53.7222Z" fill="white"/>
<path d="M176.688 53.7222H168.934L167.997 57.4156H169.332L166.52 68.0078H170.866L173.678 57.4156H175.75L176.688 53.7222Z" fill="white"/>
<path d="M181.175 62.8867C180.919 63.9379 180.408 64.6123 179.726 64.6123C179.045 64.6123 178.818 64.1545 178.818 63.1301C178.818 62.8334 178.846 62.5367 178.874 62.2134C184.015 62.0512 186.997 59.8956 186.997 56.6879C186.997 55.0434 185.889 53.5067 183.191 53.5067C178.334 53.5067 174.67 58.7623 174.67 63.7223C174.67 66.4179 176.289 68.1967 178.958 68.1967C182.594 68.1967 184.61 65.9867 185.376 62.8867H181.173H181.175ZM182.396 56.8756C182.822 56.8756 183.134 57.1456 183.134 57.5767C183.134 58.359 181.999 59.3023 179.698 59.4101C180.351 57.9812 181.317 56.8767 182.397 56.8767L182.396 56.8756Z" fill="white"/>
<path d="M193.331 61.6467L193.444 61.3233C196.171 61.2156 198.131 59.4633 198.187 56.9033C198.244 54.9356 197.051 53.7222 193.841 53.7222H188.871L185.122 68.0078H189.325L190.632 63.0478H191.342C192.165 63.0478 192.477 63.3445 192.25 64.2333L191.312 68.0067H195.658L196.254 64.4222C196.539 62.6967 195.601 61.7267 193.328 61.6456L193.331 61.6467ZM191.542 60.0289H191.4L192.223 57.01H192.791C193.842 57.01 194.211 57.3333 194.183 57.9267C194.126 59.1667 192.934 60.0289 191.542 60.0289V60.0289Z" fill="white"/>
<path d="M206.85 59.4367H203.101L203.641 57.4156H207.446L208.412 53.7222H200.346L196.597 68.0078H200.856L202.135 63.1567H205.856L206.85 59.4367Z" fill="white"/>
<path d="M213.638 53.7222H209.378L205.629 68.0078H213.354L214.319 64.3156H210.854L213.638 53.7222Z" fill="white"/>
<path d="M218.835 59.8145H218.494L219.319 53.7222H214.604L215.484 63.7489L214.347 68.0078H218.608L219.744 63.7489L225.822 53.7222H220.937L218.835 59.8145Z" fill="white"/>
<path d="M238.2 51C232.009 51 227.663 55.4744 227.663 61C227.663 66.5256 232.009 71 238.2 71C244.391 71 248.737 66.5256 248.737 61C248.737 55.4744 244.391 51 238.2 51ZM238.2 69.2478C233.031 69.2478 229.509 65.5278 229.509 61C229.509 56.4722 233.031 52.7522 238.2 52.7522C243.369 52.7522 246.891 56.4722 246.891 61C246.891 65.5278 243.369 69.2478 238.2 69.2478Z" fill="#26FE7E"/>
<path d="M232.861 62.9945C232.861 62.3479 233.371 61.7812 234.451 61.7812H234.992L235.389 60.1912H234.821C234.139 60.1912 233.799 60.0023 233.799 59.4634C233.799 58.8168 234.31 58.2779 235.39 58.2779H235.901L236.356 56.5523H235.191C232.805 56.5523 231.783 57.7923 231.783 59.329C231.783 60.2456 232.237 60.7579 233.402 60.8656L233.316 61.1356C231.555 61.2701 230.874 62.2679 230.874 63.6423C230.874 64.8279 231.584 65.4212 232.919 65.4212H235.391L235.845 63.7234H233.885C233.204 63.7234 232.864 63.5345 232.864 62.9956L232.861 62.9945Z" fill="#26FE7E"/>
<path d="M240.273 61.7823L240.671 60.1912H239.335L239.848 58.2779H241.182L241.636 56.5523H237.092L236.638 58.2779H238.001L237.49 60.1912H236.126L235.729 61.7823H237.092L236.126 65.4201H237.973L238.938 61.7823H240.273Z" fill="#26FE7E"/>
<path d="M245.529 58.3856C245.529 57.2001 244.819 56.5523 243.484 56.5523H242.376L241.922 58.2779H242.518C243.199 58.2779 243.54 58.4934 243.54 59.0323C243.54 59.679 243.028 60.1912 241.95 60.1912H241.41L241.012 61.7812H241.58C242.261 61.7812 242.602 62.0234 242.602 62.5634C242.602 63.2101 242.091 63.7223 241.012 63.7223H239.166L238.711 65.4201H241.211C243.597 65.4201 244.619 64.2345 244.619 62.6979C244.619 61.7812 244.165 61.269 243 61.1345L243.085 60.8645C244.846 60.7301 245.529 59.759 245.529 58.3845V58.3856Z" fill="#26FE7E"/>
<circle opacity="0.1" cx="28" cy="61" r="16" fill="white"/>
<path fill-rule="evenodd" clip-rule="evenodd" d="M33.8333 60.1667H23.9458L26.9733 56.5333C27.2683 56.18 27.22 55.6542 26.8666 55.36C26.5125 55.065 25.9875 55.1133 25.6933 55.4667L21.5266 60.4667C21.4941 60.5058 21.4775 60.5517 21.4533 60.595C21.4333 60.63 21.4091 60.66 21.3941 60.6983C21.3566 60.7942 21.3341 60.895 21.3341 60.9967C21.3341 60.9975 21.3333 60.9992 21.3333 61C21.3333 61.0008 21.3341 61.0025 21.3341 61.0033C21.3341 61.105 21.3566 61.2058 21.3941 61.3017C21.4091 61.34 21.4333 61.37 21.4533 61.405C21.4775 61.4483 21.4941 61.4942 21.5266 61.5333L25.6933 66.5333C25.8583 66.7308 26.095 66.8333 26.3333 66.8333C26.5216 66.8333 26.7108 66.77 26.8666 66.64C27.22 66.3458 27.2683 65.82 26.9733 65.4667L23.9458 61.8333H33.8333C34.2933 61.8333 34.6666 61.46 34.6666 61C34.6666 60.54 34.2933 60.1667 33.8333 60.1667" fill="white"/>
</g>
<defs>
<clipPath id="clip0_3_534">
<rect width="390" height="843" fill="white"/>
</clipPath>
</defs>
</svg>
